<mxfile host="app.diagrams.net" agent="Mozilla/5.0 (Windows NT 10.0; Win64; x64) AppleWebKit/537.36 (KHTML, like Gecko) Chrome/139.0.0.0 Safari/537.36" version="28.2.0">
  <diagram name="Page-1" id="Qk5kIvOyHzb302y1McfY">
    <mxGraphModel dx="1226" dy="661" grid="1" gridSize="10" guides="1" tooltips="1" connect="1" arrows="1" fold="1" page="1" pageScale="1" pageWidth="850" pageHeight="1100" background="light-dark(#ffffff, #d70909)" math="0" shadow="1">
      <root>
        <mxCell id="0" />
        <mxCell id="1" parent="0" />
        <mxCell id="_i00NOxdfU79s_sq9cTh-6" value="" style="edgeStyle=orthogonalEdgeStyle;rounded=0;orthogonalLoop=1;jettySize=auto;html=1;" edge="1" parent="1" source="_i00NOxdfU79s_sq9cTh-1" target="_i00NOxdfU79s_sq9cTh-5">
          <mxGeometry relative="1" as="geometry" />
        </mxCell>
        <mxCell id="_i00NOxdfU79s_sq9cTh-1" value="plan" style="ellipse;whiteSpace=wrap;html=1;" vertex="1" parent="1">
          <mxGeometry x="330" y="60" width="120" height="80" as="geometry" />
        </mxCell>
        <mxCell id="_i00NOxdfU79s_sq9cTh-10" value="" style="edgeStyle=orthogonalEdgeStyle;rounded=0;orthogonalLoop=1;jettySize=auto;html=1;" edge="1" parent="1" source="_i00NOxdfU79s_sq9cTh-5" target="_i00NOxdfU79s_sq9cTh-9">
          <mxGeometry relative="1" as="geometry" />
        </mxCell>
        <mxCell id="_i00NOxdfU79s_sq9cTh-5" value="develop" style="ellipse;whiteSpace=wrap;html=1;" vertex="1" parent="1">
          <mxGeometry x="330" y="210" width="120" height="80" as="geometry" />
        </mxCell>
        <mxCell id="_i00NOxdfU79s_sq9cTh-12" value="" style="edgeStyle=orthogonalEdgeStyle;rounded=0;orthogonalLoop=1;jettySize=auto;html=1;" edge="1" parent="1" source="_i00NOxdfU79s_sq9cTh-9" target="_i00NOxdfU79s_sq9cTh-11">
          <mxGeometry relative="1" as="geometry" />
        </mxCell>
        <mxCell id="_i00NOxdfU79s_sq9cTh-9" value="testing" style="ellipse;whiteSpace=wrap;html=1;" vertex="1" parent="1">
          <mxGeometry x="330" y="370" width="120" height="100" as="geometry" />
        </mxCell>
        <mxCell id="_i00NOxdfU79s_sq9cTh-15" value="" style="edgeStyle=orthogonalEdgeStyle;rounded=0;orthogonalLoop=1;jettySize=auto;html=1;" edge="1" parent="1" source="_i00NOxdfU79s_sq9cTh-11" target="_i00NOxdfU79s_sq9cTh-14">
          <mxGeometry relative="1" as="geometry" />
        </mxCell>
        <mxCell id="_i00NOxdfU79s_sq9cTh-11" value="release" style="ellipse;whiteSpace=wrap;html=1;" vertex="1" parent="1">
          <mxGeometry x="310" y="540" width="160" height="100" as="geometry" />
        </mxCell>
        <mxCell id="_i00NOxdfU79s_sq9cTh-16" style="edgeStyle=orthogonalEdgeStyle;rounded=0;orthogonalLoop=1;jettySize=auto;html=1;" edge="1" parent="1" source="_i00NOxdfU79s_sq9cTh-14">
          <mxGeometry relative="1" as="geometry">
            <mxPoint x="390" y="850" as="targetPoint" />
            <Array as="points">
              <mxPoint x="390" y="840" />
              <mxPoint x="391" y="850" />
            </Array>
          </mxGeometry>
        </mxCell>
        <mxCell id="_i00NOxdfU79s_sq9cTh-14" value="deploy" style="ellipse;whiteSpace=wrap;html=1;" vertex="1" parent="1">
          <mxGeometry x="310" y="750" width="160" height="150" as="geometry" />
        </mxCell>
      </root>
    </mxGraphModel>
  </diagram>
</mxfile>
